<svg width="36" height="36" viewBox="0 0 36 36" fill="none" xmlns="http://www.w3.org/2000/svg">
<circle cx="18" cy="18" r="18" fill="#EF9430" fill-opacity="0.1"/>
<circle cx="18.2733" cy="18.2728" r="15" fill="#EF9435"/>
<g clip-path="url(#clip0)">
<path d="M18.1224 13.5819V11.8637C18.1224 11.3892 17.7377 11.0046 17.2633 11.0046C16.7888 11.0046 16.4042 11.3892 16.4042 11.8637V13.5819C16.4042 14.0563 16.7888 14.4409 17.2633 14.4409C17.7377 14.4409 18.1224 14.0563 18.1224 13.5819Z" fill="white"/>
<path d="M14.6861 15.3V13.5819C14.6861 13.1074 14.3014 12.7228 13.827 12.7228C13.3525 12.7228 12.9679 13.1074 12.9679 13.5819V15.3C12.9679 15.7745 13.3525 16.1591 13.827 16.1591C14.3014 16.1591 14.6861 15.7745 14.6861 15.3Z" fill="white"/>
<path d="M21.5588 15.3V13.5819C21.5588 13.1074 21.1741 12.7228 20.6997 12.7228C20.2252 12.7228 19.8406 13.1074 19.8406 13.5819V15.3C19.8406 15.7745 20.2252 16.1591 20.6997 16.1591C21.1741 16.1591 21.5588 15.7745 21.5588 15.3Z" fill="white"/>
<path d="M24.9951 17.8773H12.9679C12.74 17.8773 12.5215 17.9678 12.3604 18.1289C12.1993 18.2901 12.1088 18.5086 12.1088 18.7364V20.4546C12.1088 21.1381 12.3803 21.7937 12.8636 22.277C13.347 22.7603 14.0025 23.0319 14.686 23.0319H20.6997C21.3832 23.0319 22.0387 22.7603 22.5221 22.277C23.0054 21.7937 23.2769 21.1381 23.2769 20.4546V19.5955H24.9951C25.223 19.5955 25.4415 19.505 25.6026 19.3439C25.7637 19.1828 25.8542 18.9643 25.8542 18.7364C25.8542 18.5086 25.7637 18.2901 25.6026 18.1289C25.4415 17.9678 25.223 17.8773 24.9951 17.8773Z" fill="white"/>
</g>
<defs>
<clipPath id="clip0">
<rect width="13.7455" height="13.7455" fill="white" transform="translate(12.1088 9.1637)"/>
</clipPath>
</defs>
</svg>
