<svg width="40" height="40" viewBox="0 0 40 40" fill="none" xmlns="http://www.w3.org/2000/svg">
<circle cx="20" cy="20" r="20" fill="#F5A623" fill-opacity="0.25"/>
<g clip-path="url(#clip0)">
<path d="M19.875 14.5V12.25C19.875 11.6287 19.3713 11.125 18.75 11.125C18.1287 11.125 17.625 11.6287 17.625 12.25V14.5C17.625 15.1213 18.1287 15.625 18.75 15.625C19.3713 15.625 19.875 15.1213 19.875 14.5Z" fill="#F5A623"/>
<path d="M15.375 16.75V14.5C15.375 13.8787 14.8713 13.375 14.25 13.375C13.6287 13.375 13.125 13.8787 13.125 14.5V16.75C13.125 17.3713 13.6287 17.875 14.25 17.875C14.8713 17.875 15.375 17.3713 15.375 16.75Z" fill="#F5A623"/>
<path d="M24.375 16.75V14.5C24.375 13.8787 23.8713 13.375 23.25 13.375C22.6287 13.375 22.125 13.8787 22.125 14.5V16.75C22.125 17.3713 22.6287 17.875 23.25 17.875C23.8713 17.875 24.375 17.3713 24.375 16.75Z" fill="#F5A623"/>
<path d="M28.875 20.125H13.125C12.8266 20.125 12.5405 20.2435 12.3295 20.4545C12.1185 20.6655 12 20.9516 12 21.25V23.5C12 24.3951 12.3556 25.2536 12.9885 25.8865C13.6214 26.5194 14.4799 26.875 15.375 26.875H23.25C24.1451 26.875 25.0036 26.5194 25.6365 25.8865C26.2694 25.2536 26.625 24.3951 26.625 23.5V22.375H28.875C29.1734 22.375 29.4595 22.2565 29.6705 22.0455C29.8815 21.8345 30 21.5484 30 21.25C30 20.9516 29.8815 20.6655 29.6705 20.4545C29.4595 20.2435 29.1734 20.125 28.875 20.125Z" fill="#F5A623"/>
</g>
<defs>
<clipPath id="clip0">
<rect width="18" height="18" fill="white" transform="translate(12 10)"/>
</clipPath>
</defs>
</svg>
