<svg width="11" height="11" viewBox="0 0 11 11" fill="none" xmlns="http://www.w3.org/2000/svg">
<path d="M6.1875 0H4.8125V1.375H6.1875V0Z" fill="white"/>
<path d="M9.82715 2.09793L8.85516 1.12526L7.88249 2.09725L8.85448 3.06992L9.82715 2.09793Z" fill="white"/>
<path d="M11 4.8125H9.625V6.1875H11V4.8125Z" fill="white"/>
<path d="M7.93046 8.95086L8.90314 9.92285L9.87513 8.95018L8.90245 7.97819L7.93046 8.95086Z" fill="white"/>
<path d="M6.1875 9.625H4.8125V11H6.1875V9.625Z" fill="white"/>
<path d="M1.07672 8.90213L2.04871 9.8748L3.02138 8.90281L2.04939 7.93014L1.07672 8.90213Z" fill="white"/>
<path d="M1.375 4.8125H0V6.1875H1.375V4.8125Z" fill="white"/>
<path d="M3.06948 2.14522L2.0968 1.17323L1.12481 2.14591L2.09749 3.1179L3.06948 2.14522Z" fill="white"/>
<path d="M5.5 2.75C3.9875 2.75 2.75 3.9875 2.75 5.5C2.75 7.0125 3.9875 8.25 5.5 8.25C7.0125 8.25 8.25 7.0125 8.25 5.5C8.25 3.9875 7.0125 2.75 5.5 2.75Z" fill="white"/>
</svg>
