<svg width="12" height="12" viewBox="0 0 12 12" fill="none" xmlns="http://www.w3.org/2000/svg">
<g clip-path="url(#clip0)">
<path d="M5.25 6.75C6.07843 6.75 6.75 6.07843 6.75 5.25C6.75 4.42157 6.07843 3.75 5.25 3.75C4.42157 3.75 3.75 4.42157 3.75 5.25C3.75 6.07843 4.42157 6.75 5.25 6.75Z" fill="#20BC9A"/>
<path d="M10.7197 7.71973L8.24998 10.1895L7.28023 9.21973L6.21973 10.2802L7.71973 11.7802C7.86037 11.9208 8.0511 11.9998 8.24998 11.9998C8.44885 11.9998 8.63958 11.9208 8.78023 11.7802L11.7802 8.78023L10.7197 7.71973Z" fill="#20BC9A"/>
<path d="M2.66927 7.96559C2.29891 7.61702 2.00405 7.19614 1.80293 6.72901C1.60181 6.26188 1.49871 5.75843 1.50002 5.24984C1.49936 4.69199 1.62318 4.14101 1.86244 3.63707C2.1017 3.13313 2.45038 2.68892 2.88307 2.33681C3.31576 1.9847 3.82156 1.73356 4.36361 1.6017C4.90565 1.46983 5.47029 1.46057 6.01638 1.57457C6.56246 1.68858 7.07623 1.92298 7.52024 2.2607C7.96425 2.59842 8.32732 3.03095 8.58299 3.52677C8.83866 4.02259 8.98049 4.5692 8.99814 5.12678C9.01579 5.68436 8.90882 6.23885 8.68502 6.74984H10.281C10.4964 6.02773 10.5538 5.26773 10.4493 4.52146C10.3448 3.7752 10.081 3.06017 9.67557 2.42496C9.27018 1.78976 8.73281 1.24926 8.09996 0.840206C7.46711 0.43115 6.75362 0.16312 6.00797 0.0543304C5.26232 -0.0544596 4.502 -0.00146005 3.77865 0.209727C3.05531 0.420915 2.38591 0.785341 1.81593 1.27824C1.24595 1.77114 0.788763 2.38096 0.475425 3.06627C0.162087 3.75157 -5.45349e-05 4.4963 1.90722e-05 5.24984C-0.00187002 5.9474 0.136595 6.63821 0.407174 7.28116C0.677752 7.9241 1.07491 8.50604 1.57502 8.99234C1.63202 9.06059 4.68827 11.7531 4.75427 11.8116C4.89108 11.9326 5.06736 11.9996 5.25002 11.9998V10.2493L2.70002 7.99934C2.69177 7.98659 2.68052 7.97609 2.66927 7.96559Z" fill="#20BC9A"/>
</g>
<defs>
<clipPath id="clip0">
<rect width="12" height="12" fill="white"/>
</clipPath>
</defs>
</svg>
