<?xml version="1.0" encoding="UTF-8"?>
<svg width="58px" height="58px" viewBox="0 0 58 58" version="1.1" xmlns="http://www.w3.org/2000/svg" xmlns:xlink="http://www.w3.org/1999/xlink">
    <!-- Generator: Sketch 52.6 (67491) - http://www.bohemiancoding.com/sketch -->
    <title>Handoff</title>
    <desc>Created with Sketch.</desc>
    <g id="Handoff-Feed" stroke="none" stroke-width="1" fill="none" fill-rule="evenodd">
        <g id="HandOff-Feed" transform="translate(-53.000000, -49.000000)" fill="#FFFFFF">
            <g id="Handoff" transform="translate(54.000000, 50.000000)">
                <circle id="Oval" stroke-opacity="0.15" stroke="#FFFFFF" fill-opacity="0.096255" cx="28" cy="28" r="28.5"></circle>
                <g id="noun_Car_174300" transform="translate(14.000000, 12.000000)" fill-rule="nonzero">
                    <path d="M25.2790363,14.0522293 C25.2790363,13.6598726 25.0021575,13.3796178 24.6145271,13.3796178 C24.4760877,13.3796178 24.3099604,13.3796178 24.171521,13.3796178 C23.3408846,13.3796178 22.7594391,14.3324841 22.7594391,14.3324841 C22.7040633,14.444586 22.6209996,14.5566879 22.537936,14.7248408 C22.4548723,14.3605096 22.3718087,14.0802548 22.2887451,13.8 C21.9288026,12.5388535 21.3750449,11.3617834 20.65516,10.2968153 C20.1290903,9.54012739 19.3815174,9.28789809 18.550881,9.11974522 C17.0557353,8.86751592 15.5329018,8.83949045 14.0377562,8.83949045 C12.5149227,8.83949045 11.0197771,8.86751592 9.52463143,9.11974522 C8.69399497,9.25987261 7.94642215,9.54012739 7.42035239,10.2968153 C6.67277958,11.3898089 6.11902193,12.5388535 5.78676735,13.8 C5.7037037,14.0802548 5.64832794,14.3605096 5.53757641,14.7248408 C5.42682488,14.5566879 5.34376124,14.444586 5.31607335,14.3324841 C5.31607335,14.3324841 4.73462783,13.3796178 3.90399137,13.3796178 C3.76555196,13.3796178 3.59942467,13.3796178 3.46098526,13.3796178 C3.07335491,13.3796178 2.79647609,13.6598726 2.79647609,14.0522293 C2.79647609,14.3324841 2.79647609,14.6127389 2.79647609,14.8929936 C2.79647609,15.3133758 3.07335491,15.5936306 3.51636102,15.5936306 C3.93167925,15.5936306 4.34699748,15.5936306 4.7900036,15.5936306 C4.95613089,15.5936306 5.12225818,15.5936306 5.28838547,15.5936306 C5.31607335,15.6216561 5.31607335,15.6496815 5.34376124,15.677707 C5.28838547,15.7057325 5.23300971,15.733758 5.17763394,15.7617834 C4.09780654,16.7987261 3.5440489,18.0598726 3.5440489,19.5732484 C3.57173679,20.4700637 3.62711255,21.366879 3.73786408,22.2636943 C3.82092772,22.9643312 3.95936713,23.6369427 4.29162172,24.2535032 C4.43006113,24.533758 4.59618842,24.7299363 4.90075512,24.7859873 C5.03919453,24.8140127 5.06688242,24.8980892 5.06688242,25.0382166 C5.06688242,25.4025478 5.06688242,25.7949045 5.06688242,26.1592357 C5.06688242,26.6917197 5.37144912,27 5.869831,27 C6.31283711,27 6.75584322,27 7.17116145,27 C7.72491909,27 8.0294858,26.7197452 8.0294858,26.1312102 C8.0294858,25.8509554 8.0294858,25.5426752 8.0294858,25.2343949 C10.0507012,25.3745223 12.0442287,25.4585987 14.0377562,25.4585987 C16.0312837,25.4585987 18.0524991,25.3745223 20.0460266,25.2343949 C20.0460266,25.5426752 20.0460266,25.8229299 20.0460266,26.1312102 C20.0460266,26.6917197 20.3505933,27 20.904351,27 C21.3473571,27 21.7903632,27 22.2056814,27 C22.7040633,27 23.00863,26.6917197 23.00863,26.1592357 C23.00863,25.7949045 23.00863,25.4025478 23.00863,25.0382166 C23.00863,24.9261146 23.0363179,24.8140127 23.1747573,24.7859873 C23.479324,24.7299363 23.6454513,24.5057325 23.7838907,24.2535032 C24.0884574,23.6089172 24.2545847,22.9363057 24.3376483,22.2636943 C24.4483999,21.366879 24.5037756,20.4700637 24.5314635,19.5732484 C24.5591514,18.0598726 23.9777059,16.7987261 22.8978785,15.7617834 C22.8425027,15.733758 22.7871269,15.7057325 22.7317512,15.677707 C22.7594391,15.6496815 22.7594391,15.6216561 22.7871269,15.5936306 C22.9532542,15.5936306 23.1193815,15.5936306 23.2855088,15.5936306 C23.700827,15.5936306 24.1161453,15.5936306 24.5591514,15.5936306 C24.9744696,15.5936306 25.2513484,15.3133758 25.2790363,14.8929936 C25.2790363,14.6407643 25.2790363,14.3324841 25.2790363,14.0522293 Z M6.81121899,14.9490446 C7.14347357,13.6038217 7.64185545,12.3146497 8.3340525,11.1095541 C8.36174038,11.0535032 8.41711615,10.9974522 8.47249191,10.9414013 C8.47249191,10.9414013 8.47249191,10.9414013 8.47249191,10.9414013 C8.52786767,10.9133758 8.58324344,10.8573248 8.6386192,10.8573248 C9.08162531,10.6611465 10.4106437,10.2687898 14.0100683,10.2407643 C17.609493,10.2687898 18.9385113,10.6611465 19.3815174,10.8573248 C19.4645811,10.8853503 19.5199569,10.9133758 19.5476447,10.9414013 C19.5476447,10.9414013 19.5476447,10.9414013 19.5476447,10.9414013 C19.6030205,10.9974522 19.6307084,11.0254777 19.6860841,11.1095541 C20.4059691,12.3146497 20.904351,13.5757962 21.2089177,14.9490446 C21.2366055,15.033121 21.2366055,15.1452229 21.2366055,15.2012739 C18.8000719,14.9770701 16.3912262,14.8929936 13.9823804,14.8929936 C11.5735347,14.8929936 9.13700108,15.0050955 6.72815534,15.2012739 C6.75584322,15.1171975 6.7835311,15.033121 6.81121899,14.9490446 Z M7.17116145,20.6942675 C6.28514923,20.6942675 5.59295218,19.9656051 5.59295218,19.0968153 C5.59295218,18.2280255 6.31283711,17.4993631 7.17116145,17.4993631 C8.0294858,17.4993631 8.74937073,18.2280255 8.74937073,19.0968153 C8.74937073,19.9656051 8.05717368,20.6942675 7.17116145,20.6942675 Z M20.8766631,20.6942675 C19.9906508,20.6942675 19.2984538,19.9656051 19.2984538,19.0968153 C19.2984538,18.2280255 20.0183387,17.4993631 20.8766631,17.4993631 C21.7626753,17.4993631 22.4548723,18.2280255 22.4548723,19.0968153 C22.4548723,19.9656051 21.7626753,20.6942675 20.8766631,20.6942675 Z M24.4483999,9.73630573 L24.7806544,10.633121 L25.6666667,10.9694268 L24.7806544,11.3057325 L24.4483999,12.2025478 L24.1161453,11.3057325 L23.230133,10.9694268 L24.1161453,10.633121 L24.4483999,9.73630573 Z M1.21826681,15.4254777 L1.5505214,16.322293 L2.43653362,16.6585987 L1.5505214,16.9949045 L1.21826681,17.8917197 L0.886012226,16.9949045 L0,16.6585987 L0.886012226,16.322293 L1.21826681,15.4254777 Z M18.1873427,0.514649682 L18.7964761,2.11210191 L20.3746854,2.72866242 L18.7964761,3.34522293 L18.1873427,4.94267516 L17.5782093,3.34522293 L16,2.72866242 L17.5782093,2.11210191 L18.1873427,0.514649682 Z" id="Shape"></path>
                </g>
            </g>
        </g>
    </g>
</svg>