<svg width="12" height="13" viewBox="0 0 12 13" fill="none" xmlns="http://www.w3.org/2000/svg">
<path fill-rule="evenodd" clip-rule="evenodd" d="M9 10.7601H2V3.76007H4V1.76007H1C0.447715 1.76007 0 2.20779 0 2.76007V11.7601C0 12.3124 0.447715 12.7601 1 12.7601H10C10.5523 12.7601 11 12.3124 11 11.7601V8.76007H9V10.7601Z" fill="#F6B13F"/>
<path fill-rule="evenodd" clip-rule="evenodd" d="M11.581 1.17308C11.3167 0.908419 10.958 0.759705 10.584 0.759705C10.21 0.759705 9.85129 0.908419 9.587 1.17308L5 5.76008L4 8.76008L7 7.76008L11.587 3.17308C11.8517 2.90878 12.0004 2.5501 12.0004 2.17608C12.0004 1.80205 11.8517 1.44337 11.587 1.17908L11.581 1.17308Z" fill="#F6B13F"/>
</svg>
