<svg width="40" height="40" viewBox="0 0 40 40" fill="none" xmlns="http://www.w3.org/2000/svg">
<circle cx="20" cy="20" r="20" fill="#21D1AB" fill-opacity="0.2"/>
<path d="M29 18.1429C29 17.5367 28.5041 17.0408 27.898 17.0408H26.7283L25.7642 14.424C25.6244 14.0449 25.1996 13.6216 24.8198 13.4834C24.8198 13.4836 23.4898 13 20 13C16.5102 13 15.1802 13.4836 15.1802 13.4836C14.8004 13.6217 14.3756 14.0449 14.2358 14.4242L13.2717 17.0408H12.102C11.4959 17.0408 11 17.5367 11 18.1429C11 18.749 11.4959 19.2449 12.102 19.2449H12.4597L12.1724 20.025C12.0326 20.4041 11.9184 21.0449 11.9184 21.449V26.2245C11.9184 27.0327 12.5796 27.6939 13.3878 27.6939C14.1959 27.6939 14.8571 27.0327 14.8571 26.2245V25.4898H25.1429V26.2245C25.1429 27.0327 25.8041 27.6939 26.6122 27.6939C27.4204 27.6939 28.0816 27.0327 28.0816 26.2245V21.449C28.0816 21.0449 27.9674 20.4041 27.8276 20.025L27.5403 19.2449H27.898C28.5041 19.2449 29 18.749 29 18.1429ZM15.7755 14.8367H24.2245L25.3265 18.1429H14.6735L15.7755 14.8367ZM14.4898 22.551C13.8813 22.551 13.3878 22.0573 13.3878 21.449C13.3878 20.8407 13.8813 20.3469 14.4898 20.3469C15.0983 20.3469 15.5918 20.8407 15.5918 21.449C15.5918 22.0573 15.0983 22.551 14.4898 22.551ZM25.5102 22.551C24.9015 22.551 24.4082 22.0577 24.4082 21.449C24.4082 20.8403 24.9015 20.3469 25.5102 20.3469C26.1189 20.3469 26.6122 20.8403 26.6122 21.449C26.6122 22.0577 26.1189 22.551 25.5102 22.551Z" fill="#21D1AB"/>
</svg>
