<svg width="32" height="32" viewBox="0 0 32 32" fill="none" xmlns="http://www.w3.org/2000/svg">
<path d="M0 16C0 24.8366 7.16344 32 16 32C24.8366 32 32 24.8366 32 16C32 7.16344 24.8366 0 16 0C7.16344 0 0 7.16344 0 16Z" fill="white"/>
<path d="M6.07275 17.0176H10.753V18.1336H7.33634V19.7155H10.6567V20.794H7.33634V22.404H10.753V23.5185H6.07275V17.0176ZM23.6795 23.6358C25.1149 23.6358 25.9273 22.9668 25.9273 22.0476C25.9273 21.3943 25.4456 20.905 24.447 20.694L23.3873 20.483C22.7724 20.372 22.5845 20.261 22.5845 20.0375C22.5845 19.7483 22.8799 19.5686 23.4274 19.5686C24.0183 19.5686 24.4582 19.7249 24.5722 20.2563H25.8133C25.7459 19.2528 25.0105 18.5901 23.5029 18.5901C22.204 18.5901 21.292 19.1121 21.292 20.1235C21.292 20.8222 21.7946 21.277 22.8751 21.499L24.06 21.7663C24.5272 21.8554 24.6525 21.9773 24.6525 22.1664C24.6525 22.4666 24.2993 22.6541 23.7293 22.6541C23.0116 22.6541 22.6054 22.4978 22.4448 21.9664H21.1973C21.3675 22.9699 22.1301 23.6358 23.6795 23.6358ZM20.8248 23.5138H19.4809C18.638 23.5138 18.1708 23.0043 18.1708 22.3587V19.8062H17.2251V18.712H18.174V17.3521H19.4231V18.7167H20.8232V19.8108H19.4231V22.0523C19.4231 22.3071 19.6062 22.4306 19.8903 22.4306H20.8248V23.5138ZM15.4413 18.7198V19.1528C15.0021 18.7908 14.4449 18.593 13.8694 18.5947C13.5267 18.5833 13.1849 18.6382 12.8641 18.7564C12.5434 18.8745 12.2499 19.0535 12.0007 19.283C11.7516 19.5125 11.5517 19.7879 11.4128 20.0932C11.2738 20.3984 11.1985 20.7276 11.1913 21.0614C11.1841 21.3952 11.245 21.7271 11.3706 22.0379C11.4962 22.3486 11.684 22.6319 11.923 22.8714C12.162 23.1109 12.4475 23.3018 12.7629 23.433C13.0783 23.5642 13.4173 23.6331 13.7603 23.6358H13.8694C14.4449 23.6378 15.0022 23.4399 15.4413 23.0777V23.5091H16.6872V18.7167L15.4413 18.7198ZM13.9722 22.5822C13.6744 22.5856 13.3822 22.5029 13.1326 22.3447C12.883 22.1864 12.6873 21.9596 12.5701 21.693C12.4529 21.4264 12.4195 21.132 12.4742 20.847C12.5289 20.5619 12.6692 20.299 12.8773 20.0916C13.0854 19.8842 13.3521 19.7415 13.6435 19.6816C13.9349 19.6217 14.2381 19.6472 14.5146 19.755C14.7911 19.8629 15.0285 20.0481 15.1969 20.2873C15.3653 20.5265 15.457 20.8089 15.4606 21.0988V21.0988V21.1176C15.4625 21.3078 15.4258 21.4965 15.3528 21.6729C15.2797 21.8494 15.1717 22.01 15.0348 22.1458C14.8979 22.2815 14.7349 22.3896 14.555 22.464C14.3752 22.5384 14.182 22.5775 13.9866 22.5791H13.9706L13.9722 22.5822Z" fill="#60B326"/>
<path d="M25.5322 10.9668C24.9058 10.9668 24.4626 11.4442 24.4626 12.1769V14.8681H23.4989V10.1323H24.4433V10.7116C24.5601 10.52 24.7272 10.3623 24.9273 10.2547C25.1275 10.1471 25.3535 10.0935 25.582 10.0995H25.9273V10.9683L25.5322 10.9668ZM22.8436 12.501C22.8436 11.092 21.8125 10.0321 20.4184 10.0321C20.0897 10.0338 19.7646 10.0986 19.4617 10.2228C19.1587 10.347 18.8838 10.5282 18.6528 10.756C18.4217 10.9839 18.239 11.2539 18.1151 11.5506C17.9911 11.8473 17.9284 12.165 17.9306 12.4853V12.501C17.9259 12.83 17.9894 13.1566 18.1173 13.4611C18.2451 13.7657 18.4346 14.0419 18.6745 14.2734C18.9144 14.505 19.1998 14.6869 19.5135 14.8084C19.8272 14.93 20.1628 14.9886 20.5003 14.9808C20.9059 14.9871 21.3072 14.8986 21.6705 14.7227C22.0338 14.5467 22.3485 14.2884 22.5882 13.9694L21.896 13.4716C21.737 13.6886 21.5264 13.8646 21.2821 13.9846C21.0379 14.1046 20.7674 14.1649 20.4939 14.1604C20.1041 14.1589 19.7278 14.0214 19.4331 13.7726C19.1385 13.5239 18.945 13.1805 18.8878 12.8047H22.8308L22.8436 12.501ZM18.9247 12.0658C19.0982 11.344 19.6876 10.854 20.4056 10.854C20.7571 10.8569 21.0966 10.9796 21.3651 11.2009C21.6335 11.4223 21.814 11.7283 21.8751 12.0658H18.9247ZM14.9095 10.0306C14.5897 10.0302 14.2731 10.0919 13.9781 10.212C13.683 10.3322 13.4154 10.5084 13.191 10.7304V8.36328H12.2273V14.8696H13.1733V14.2685C13.3998 14.492 13.6693 14.6699 13.9664 14.7918C14.2635 14.9138 14.5823 14.9775 14.9047 14.9792C15.2379 14.9861 15.5693 14.9289 15.8799 14.811C16.1905 14.693 16.4742 14.5166 16.7148 14.2918C16.9554 14.067 17.1483 13.7982 17.2824 13.5007C17.4164 13.2032 17.489 12.8829 17.4961 12.5581C17.5032 12.2333 17.4445 11.9103 17.3235 11.6075C17.2025 11.3048 17.0215 11.0283 16.7909 10.7937C16.5603 10.5591 16.2845 10.3712 15.9793 10.2405C15.6741 10.1098 15.3455 10.039 15.0123 10.0321H14.9031L14.9095 10.0306ZM14.8404 14.1448C14.5075 14.1463 14.1816 14.0516 13.904 13.8726C13.6263 13.6936 13.4093 13.4384 13.2804 13.1392C13.1516 12.84 13.1166 12.5103 13.18 12.1917C13.2434 11.8732 13.4023 11.5801 13.6366 11.3495C13.8708 11.119 14.17 10.9613 14.4962 10.8965C14.8224 10.8317 15.1609 10.8626 15.4691 10.9854C15.7773 11.1081 16.0412 11.3172 16.2275 11.5861C16.4137 11.855 16.514 12.1718 16.5156 12.4963V12.5104C16.5158 12.7242 16.4728 12.9359 16.3891 13.1336C16.3053 13.3312 16.1825 13.5108 16.0275 13.6621C15.8725 13.8134 15.6885 13.9335 15.4859 14.0155C15.2834 14.0976 15.0662 14.1399 14.8469 14.1401V14.1401L14.8404 14.1448ZM8.71157 14.0994C9.63507 14.0994 10.3498 13.4105 10.3498 12.3773V8.36328H11.3456V14.8696H10.3658V14.2528C10.137 14.4838 9.86243 14.667 9.55872 14.7913C9.25501 14.9157 8.92854 14.9785 8.59914 14.9761C7.16972 14.9761 6.07275 13.9647 6.07275 12.4337V8.36328H7.08138V12.3836C7.08138 13.4231 7.76879 14.1056 8.70675 14.1056L8.71157 14.0994Z" fill="black"/>
</svg>
