<svg width="32" height="31" viewBox="0 0 32 31" fill="none" xmlns="http://www.w3.org/2000/svg">
<g clip-path="url(#clip0)">
<rect y="0.136719" width="32" height="30.8148" fill="white"/>
<path d="M24.2002 18.4564C24.2129 17.4442 24.167 16.432 24.0628 15.4244C23.9857 14.7436 23.7442 13.8732 22.98 13.6957C23.0787 13.7196 23.1826 13.7163 23.2793 13.686C24.1681 13.2386 24.1 12.1371 23.7853 11.3408C23.373 10.2965 22.3905 9.55736 21.4195 9.06621C17.9299 7.30098 13.2599 7.4493 9.87691 9.4601C8.99712 9.98286 7.98247 11.0004 8.42814 12.1371C8.54915 12.4186 8.72766 12.6748 8.95345 12.8909C9.05235 12.9918 9.28867 13.2264 9.28867 13.2276C8.83529 13.8197 8.50392 14.3522 8.29072 15.0719C7.64982 17.2334 7.75642 18.623 7.93238 20.3615C8.04155 21.4362 8.41145 23.0361 9.69838 23.2136C10.7477 23.3534 11.8818 23.0203 12.9324 22.9023C14.0884 22.771 15.2546 22.5668 16.4208 22.596C18.0673 22.6361 19.701 23.013 21.3502 23.0276C22.221 23.0361 23.6685 23.1151 23.9279 22.0124C24.1745 20.9633 24.1848 19.8691 24.1848 18.7981C24.1989 18.6838 24.2002 18.5695 24.2002 18.4564ZM22.3173 20.2715C21.9076 21.1602 20.7478 21.0605 19.9399 20.9949C18.7301 20.8964 17.5394 20.6156 16.3232 20.5803C15.2469 20.5499 14.1821 20.7457 13.1328 20.9669C12.348 21.1335 11.2538 21.5675 10.5448 20.9864C9.75875 20.3445 9.61747 19.2479 9.60719 18.3276C9.62276 17.4941 9.70866 16.6632 9.86407 15.8426C9.96115 15.336 10.1157 14.8408 10.3252 14.3655C10.6077 13.6774 11.0226 13.2641 11.0444 13.286C10.8325 13.0757 10.5795 12.9638 10.4369 12.6781C9.90003 11.5961 11.2422 10.6819 11.9781 10.3682C14.5469 9.26315 18.1431 9.37257 20.5706 10.7913C21.327 11.2326 22.7964 12.7547 21.4234 13.5121C22.2698 13.8963 22.4843 15.0573 22.5793 15.8815C22.7275 17.2044 22.6843 18.5403 22.4509 19.8521C22.4244 19.9965 22.3795 20.1373 22.3173 20.2715Z" fill="#FF4C00"/>
</g>
<defs>
<clipPath id="clip0">
<rect y="0.136719" width="32" height="30.8148" rx="15.4074" fill="white"/>
</clipPath>
</defs>
</svg>
