<svg width="33" height="32" viewBox="0 0 33 32" fill="none" xmlns="http://www.w3.org/2000/svg">
<rect x="0.717285" y="0.523438" width="32" height="30.8148" rx="15.4074" fill="white"/>
<path d="M16.7601 20.7728C18.174 20.7636 19.2926 20.3306 20.2425 19.5028C20.3905 19.3738 20.5431 19.377 20.6778 19.5028C21.3394 20.1214 22.0046 20.7607 22.6801 21.3655C22.8478 21.5157 22.8501 21.6358 22.6801 21.7888C21.2343 23.1117 19.3521 23.8919 17.3695 23.9902C13.2814 24.229 9.70838 21.4163 8.83779 17.6401C7.85194 13.3614 10.6131 9.01159 15.019 8.07253C17.8595 7.46715 20.4245 8.13179 22.5931 10.0199C22.8255 10.2223 22.8037 10.2282 22.5931 10.4432C21.9597 11.0899 21.3079 11.741 20.6778 12.3906C20.5542 12.5176 20.4684 12.5172 20.3295 12.3906C17.9141 10.1909 14.1664 10.7411 12.5813 13.576C10.9593 16.4765 12.6248 20.0916 16.0637 20.6881C16.3405 20.7361 16.6124 20.7597 16.7601 20.7728Z" fill="#F77249"/>
<path d="M14.6707 15.8622C14.67 14.6073 15.6523 13.5762 16.9342 13.5762C17.5562 13.5805 18.1516 13.8227 18.5914 14.2505C19.0313 14.6783 19.2804 15.2572 19.2848 15.8622C19.2831 17.0996 18.2011 18.1412 16.9342 18.1483C15.6611 18.1553 14.6712 17.1091 14.6707 15.8622Z" fill="#F77249"/>
</svg>
