<svg width="33" height="33" viewBox="0 0 33 33" fill="none" xmlns="http://www.w3.org/2000/svg">
<rect x="0.899414" y="0.123047" width="32" height="32" rx="16" fill="white"/>
<mask id="mask0" mask-type="alpha" maskUnits="userSpaceOnUse" x="0" y="0" width="33" height="33">
<rect x="0.899414" y="0.123047" width="32" height="32" rx="16" fill="white"/>
</mask>
<g mask="url(#mask0)">
<path d="M25.2237 13.8526C24.3713 12.292 22.7131 11.3223 20.8999 11.3223H7.23104C6.96758 11.3223 6.76611 11.5344 6.76611 11.792C6.76611 11.9132 6.81261 12.0344 6.90559 12.1101L9.88112 15.0344C10.1446 15.292 10.501 15.4435 10.873 15.4435H20.5124C21.1943 15.4435 21.7677 15.9738 21.7677 16.6404C21.7677 17.3071 21.2253 17.8677 20.5434 17.8677H13.895C13.6315 17.8677 13.4301 18.0798 13.4301 18.3374C13.4301 18.4586 13.4766 18.5798 13.5695 18.6556L16.5296 21.5798C16.793 21.8374 17.1495 21.9889 17.5214 21.9889H20.5279C24.4488 21.9889 27.4089 17.898 25.2237 13.8526Z" fill="#FF3008"/>
</g>
</svg>
