<svg width="33" height="33" viewBox="0 0 33 33" fill="none" xmlns="http://www.w3.org/2000/svg">
<path d="M0.717285 16.5195C0.717285 25.3561 7.88073 32.5195 16.7173 32.5195C25.5538 32.5195 32.7173 25.3561 32.7173 16.5195C32.7173 7.68297 25.5538 0.519531 16.7173 0.519531C7.88073 0.519531 0.717285 7.68297 0.717285 16.5195Z" fill="white"/>
<path d="M21.8601 19.3122C21.8369 19.3338 21.8064 19.3459 21.7747 19.3459C21.743 19.3459 21.7125 19.3338 21.6893 19.3122L19.9731 17.3682C19.9452 17.3402 19.9121 17.318 19.8756 17.3028C19.8391 17.2876 19.8 17.2798 19.7605 17.2798C19.7209 17.2798 19.6818 17.2876 19.6453 17.3028C19.6088 17.318 19.5757 17.3402 19.5478 17.3682C19.491 17.4252 19.4591 17.5023 19.4591 17.5827C19.4591 17.6632 19.491 17.7403 19.5478 17.7973L21.2792 19.7223C21.3191 19.7628 21.3414 19.8173 21.3414 19.8741C21.3414 19.931 21.3191 19.9855 21.2792 20.026C21.2597 20.0467 21.2361 20.0632 21.21 20.0745C21.1839 20.0857 21.1558 20.0915 21.1273 20.0915C21.0989 20.0915 21.0707 20.0857 21.0446 20.0745C21.0185 20.0632 20.995 20.0467 20.9755 20.026L19.0466 18.2947C18.9903 18.2383 18.9138 18.2066 18.834 18.2066C18.7543 18.2066 18.6778 18.2383 18.6214 18.2947C18.565 18.351 18.5333 18.4275 18.5333 18.5073C18.5333 18.587 18.565 18.6635 18.6214 18.7199L20.5654 20.4399C20.5848 20.4589 20.597 20.484 20.6 20.5109C20.6029 20.5379 20.5965 20.5651 20.5818 20.5878C20.567 20.6106 20.5449 20.6276 20.5191 20.6359C20.4933 20.6443 20.4654 20.6434 20.4401 20.6335C19.7022 20.3561 19.0166 19.9555 18.4126 19.4489C18.028 19.083 17.8006 18.582 17.7785 18.0517V18.0517C17.7785 17.5808 17.8392 17.2695 17.433 16.8518L16.9166 16.3772L16.3775 16.8784C15.9712 17.3986 16.0623 17.7441 16.0623 18.1694C16.0375 18.7319 15.7952 19.2628 15.3865 19.6501C14.555 20.4816 13.021 20.9335 12.349 20.2614C11.6769 19.5894 12.1326 18.0555 12.9603 17.2239C13.3499 16.8163 13.8815 16.5743 14.4449 16.5481V16.5481C14.8663 16.5481 15.2042 16.6316 15.7016 16.2102L16.7116 15.1205L16.9242 14.8851L19.4529 12.1323C19.5162 12.0597 19.5937 12.0008 19.6806 11.9593C19.7676 11.9179 19.8622 11.8947 19.9585 11.8914C20.0548 11.8881 20.1507 11.9046 20.2403 11.9399C20.33 11.9752 20.4114 12.0286 20.4795 12.0967C20.5476 12.1648 20.601 12.2463 20.6364 12.3359C20.6717 12.4255 20.6882 12.5215 20.6848 12.6178C20.6815 12.7141 20.6584 12.8086 20.6169 12.8956C20.5755 12.9826 20.5166 13.0601 20.4439 13.1233L17.657 15.709L18.1088 16.2026C18.5227 16.5823 18.834 16.5367 19.3048 16.5405C19.8352 16.5627 20.3362 16.79 20.7021 17.1746C21.2096 17.7773 21.6091 18.4632 21.8829 19.2021C21.8926 19.2228 21.8955 19.2459 21.8915 19.2684C21.8874 19.2908 21.8764 19.3114 21.8601 19.3274V19.3122ZM13.3779 12.1096C13.4447 12.0428 13.5243 11.9902 13.6119 11.9551C13.6995 11.9199 13.7934 11.9029 13.8878 11.905C13.9822 11.9071 14.0752 11.9284 14.1611 11.9675C14.2471 12.0065 14.3242 12.0626 14.3879 12.1323L16.2332 14.1295L15.432 14.9952L13.3779 13.1233C13.3081 13.0593 13.2519 12.9818 13.2128 12.8956C13.1737 12.8093 13.1525 12.716 13.1503 12.6213C13.1482 12.5266 13.1652 12.4324 13.2004 12.3445C13.2356 12.2566 13.2883 12.1766 13.3552 12.1096H13.3779ZM25.6494 16.0355C25.6494 13.7194 24.7293 11.4982 23.0916 9.86051C21.4539 8.22279 19.2327 7.30273 16.9166 7.30273C14.6005 7.30273 12.3793 8.22279 10.7416 9.86051C9.10389 11.4982 8.18384 13.7194 8.18384 16.0355C8.18384 16.157 8.18384 16.2785 8.18384 16.4152C8.18524 17.2319 8.3318 18.0418 8.61668 18.8072C8.98138 19.9002 9.55812 20.9105 10.3139 21.7802C11.5023 23.2647 13.3514 24.8632 16.218 26.3364C16.4319 26.4457 16.6688 26.5027 16.909 26.5027C17.1493 26.5027 17.3861 26.4457 17.6 26.3364C20.4667 24.867 22.3157 23.2685 23.5042 21.7802C24.2599 20.9105 24.8367 19.9002 25.2014 18.8072C25.4862 18.0418 25.6328 17.2319 25.6342 16.4152C25.6342 16.2975 25.6342 16.176 25.6342 16.0355H25.6494Z" fill="#CD4247"/>
</svg>
