<svg width="33" height="33" viewBox="0 0 33 33" fill="none" xmlns="http://www.w3.org/2000/svg">
<rect x="0.899414" y="0.123047" width="32" height="32" rx="16" fill="white"/>
<path d="M11.0911 20.6582L11.4803 21.8327L12.6582 21.8602L11.7248 22.6145L12.0692 23.82L11.1048 23.0967L10.1095 23.82L10.4539 22.6145L9.4895 21.8602L10.695 21.8327L11.0911 20.6582Z" fill="#0D0D0D"/>
<path d="M12.266 16.3223L12.6621 17.4967L13.8365 17.5277L12.9032 18.2785L13.2476 19.484L12.2833 18.7607L11.3189 19.484L11.6633 18.2785L10.699 17.5277L11.8734 17.4967L12.266 16.3223Z" fill="#0D0D0D"/>
<path d="M24.9208 15.8502L23.2332 14.5449L22.5443 14.0317L21.8555 13.491C22.0966 13.4014 22.8474 13.0983 22.5443 12.9468C22.3855 12.9075 22.2245 12.8776 22.0622 12.8572L22.6477 12.3544L22.7682 12.2338L23.8807 11.3005L23.3709 10.3361L21.6489 11.8137L21.4663 11.9652C21.1758 11.9414 20.8834 11.9507 20.595 11.9927C20.308 12.0579 20.0144 12.0891 19.7202 12.0857C19.1484 11.9928 19.0313 11.3969 18.7868 11.0525C18.6352 10.8734 18.3632 10.8424 18.3356 10.7081C18.4093 10.7052 18.4812 10.6852 18.5457 10.6495C18.8453 10.498 18.9659 10.3774 19.0279 10.1949C19.0676 10.0423 19.0746 9.88303 19.0485 9.72753C19.0224 9.57202 18.9637 9.42378 18.8763 9.29253C18.9969 9.20299 19.4791 8.84135 19.4481 8.77935C19.1652 8.79207 18.8834 8.82197 18.6043 8.8689C18.5733 8.84135 18.5457 8.77935 18.5147 8.77935C18.4055 8.67642 18.2656 8.61197 18.1164 8.5958C17.9672 8.57964 17.8168 8.61265 17.6881 8.68981C16.8753 9.03422 16.9028 9.62317 17.1749 10.1949C17.2302 10.3121 17.3103 10.4159 17.4096 10.4992C17.5089 10.5824 17.6251 10.6431 17.7501 10.6771C17.7324 10.6932 17.7214 10.7153 17.7191 10.7391L17.7501 10.6771C16.4482 11.7895 13.438 13.6804 12.6597 13.7424C13.3209 13.9835 15.2221 14.0145 16.0039 13.5598C15.7938 14.4347 15.7628 15.3095 16.1555 15.7297C15.8524 15.9432 15.5527 16.1843 15.4012 16.3048C15.2497 16.4254 15.3117 16.4529 15.4322 16.5735C15.7728 16.5826 16.1115 16.5216 16.4276 16.3944L16.5757 16.2428L17.633 16.9661L17.54 17.9994L17.4815 18.5642L17.2714 20.8236C17.2696 20.8591 17.2769 20.8945 17.2926 20.9264C17.3083 20.9583 17.3318 20.9857 17.3609 21.0061C17.3885 21.0337 17.4505 21.0337 17.509 21.0337C17.5676 21.0337 17.571 21.0337 17.571 21.0061L19.5893 19.7387L20.0715 19.439L20.2815 19.3185C20.3875 19.3791 20.5085 19.4084 20.6305 19.4029C20.7524 19.3974 20.8703 19.3574 20.9704 19.2875C21.0702 19.2189 21.1468 19.1215 21.1898 19.0082C21.2329 18.895 21.2405 18.7714 21.2115 18.6537L22.1448 18.3817C22.4892 18.2921 22.5375 18.1716 22.4479 18.0372C22.3239 17.7961 21.4526 18.0097 21.332 17.8891L21.0909 17.345L21.5731 13.9008L22.3859 14.4725L22.8681 14.817L24.7142 16.1223C24.7417 16.1533 24.8037 16.1533 24.8347 16.1533C24.8581 16.1525 24.8811 16.1466 24.9019 16.1358C24.9228 16.1251 24.941 16.1099 24.9552 16.0913C25.0586 16.0327 25.0104 15.9225 24.9208 15.8502ZM19.6168 12.6265C20.0299 12.6532 20.4446 12.6336 20.8533 12.5679L21.0014 12.8676L20.099 12.9571C19.8924 13.0191 19.3137 12.4474 19.6168 12.6265V12.6265ZM16.8615 16.0017C16.9533 16.0068 17.0453 15.9963 17.1336 15.9707C17.6893 15.9319 18.2424 15.8617 18.7902 15.7607L17.8259 16.6665L16.8615 16.0017ZM19.362 15.7917C19.1519 16.4805 18.9418 16.9971 18.8212 17.3277L18.1703 16.8766L19.362 15.7917ZM19.8751 19.1049L19.393 19.408L19.362 19.439L17.7363 20.4309L17.9154 18.5642L17.9774 17.9925L18.067 17.2072L18.711 17.6446C18.6525 17.8857 18.6835 18.0372 18.8936 18.1268L20.0405 18.5504C20.0151 18.6237 20.0045 18.7013 20.0092 18.7788C20.014 18.8562 20.0339 18.9319 20.068 19.0016L19.8751 19.1049ZM20.5984 18.1406C20.505 18.1464 20.4131 18.1673 20.3263 18.2026C20.248 18.1193 20.1574 18.0484 20.0577 17.9925C19.8524 17.8826 19.6596 17.7509 19.4825 17.5998C19.6036 17.2842 19.7547 16.9809 19.9337 16.694C20.2205 17.0275 20.453 17.4041 20.6225 17.8099L20.5984 18.1406ZM20.8085 16.6045L20.2953 15.461C20.3174 15.3 20.308 15.1363 20.2678 14.9788L21.1701 14.135L20.8085 16.6045ZM20.0267 14.6447C19.4825 14.2556 18.3391 14.4347 17.6158 14.5552C17.8569 14.042 18.3046 13.5013 18.4596 12.8986C18.5491 13.2912 19.8751 13.7424 19.8751 13.7424C20.2559 13.6584 20.6292 13.5432 20.991 13.398H21.0186L21.2321 13.5461L20.0267 14.6447Z" fill="#0D0D0D"/>
<path d="M24.8953 14.1147C25.3306 14.1147 25.7561 14.2438 26.118 14.4856C26.4799 14.7274 26.762 15.0712 26.9286 15.4733C27.0952 15.8754 27.1387 16.318 27.0538 16.7449C26.9689 17.1718 26.7593 17.5639 26.4515 17.8717C26.1437 18.1795 25.7516 18.3891 25.3247 18.474C24.8978 18.559 24.4552 18.5154 24.0531 18.3488C23.651 18.1822 23.3072 17.9001 23.0654 17.5382C22.8236 17.1763 22.6945 16.7508 22.6945 16.3155C22.6981 15.7329 22.9312 15.1752 23.3431 14.7633C23.7551 14.3513 24.3127 14.1183 24.8953 14.1147V14.1147ZM24.8953 13.543C24.3511 13.5464 23.8201 13.7109 23.3693 14.0157C22.9184 14.3205 22.568 14.752 22.3621 15.2558C22.1561 15.7595 22.104 16.313 22.2123 16.8463C22.3205 17.3796 22.5843 17.869 22.9703 18.2526C23.3563 18.6362 23.8473 18.8969 24.3813 19.0019C24.9153 19.1068 25.4684 19.0512 25.9709 18.8422C26.4733 18.6331 26.9027 18.28 27.2047 17.8273C27.5067 17.3745 27.6678 16.8425 27.6678 16.2983C27.6669 15.9356 27.5944 15.5766 27.4545 15.242C27.3145 14.9074 27.1099 14.6037 26.8523 14.3483C26.5947 14.093 26.2892 13.891 25.9534 13.754C25.6176 13.617 25.258 13.5476 24.8953 13.5499V13.543Z" fill="#0D0D0D"/>
<path d="M17.4834 18.8526C17.9188 18.8526 18.3445 18.9817 18.7065 19.2237C19.0684 19.4657 19.3505 19.8096 19.517 20.212C19.6835 20.6143 19.7268 21.057 19.6417 21.484C19.5565 21.911 19.3465 22.3031 19.0384 22.6108C18.7302 22.9184 18.3378 23.1278 17.9107 23.2123C17.4835 23.2968 17.0409 23.2528 16.6388 23.0857C16.2367 22.9186 15.8933 22.6359 15.6519 22.2736C15.4105 21.9112 15.282 21.4854 15.2826 21.0499C15.2863 20.4677 15.5194 19.9103 15.9314 19.4989C16.3435 19.0875 16.9012 18.8553 17.4834 18.8526V18.8526ZM17.4834 18.2774C16.9392 18.2808 16.4082 18.4453 15.9574 18.7501C15.5066 19.0549 15.1561 19.4864 14.9502 19.9902C14.7443 20.4939 14.6922 21.0474 14.8004 21.5807C14.9087 22.1141 15.1724 22.6034 15.5584 22.987C15.9445 23.3706 16.4354 23.6313 16.9694 23.7363C17.5034 23.8412 18.0565 23.7856 18.559 23.5766C19.0614 23.3676 19.4907 23.0144 19.7927 22.5617C20.0947 22.1089 20.2559 21.5769 20.2559 21.0327C20.2559 20.6694 20.1841 20.3097 20.0445 19.9743C19.905 19.6389 19.7005 19.3344 19.4428 19.0783C19.1852 18.8222 18.8794 18.6196 18.5431 18.4822C18.2068 18.3447 17.8467 18.2751 17.4834 18.2774Z" fill="#0D0D0D"/>
<path d="M7.89592 17.4727L8.29199 18.6471L9.46643 18.6781L8.53308 19.4289L8.87749 20.6344L7.91314 19.9111L6.94879 20.6344L7.2932 19.4289L6.32886 18.6781L7.50329 18.6471L7.89592 17.4727Z" fill="#0D0D0D"/>
<path d="M20.4951 12.0085C20.6467 12.0085 21.0049 11.981 21.4285 12.0085L23.1506 10.5034L22.3963 10.4414L20.4951 12.0085Z" fill="#0D0D0D"/>
</svg>
