<svg width="33" height="33" viewBox="0 0 33 33" fill="none" xmlns="http://www.w3.org/2000/svg">
<rect x="0.899414" y="0.123047" width="32" height="32" rx="16" fill="white"/>
<mask id="mask0" mask-type="alpha" maskUnits="userSpaceOnUse" x="0" y="0" width="33" height="33">
<rect x="0.899414" y="0.123047" width="32" height="32" rx="16" fill="white"/>
</mask>
<g mask="url(#mask0)">
<path fill-rule="evenodd" clip-rule="evenodd" d="M12.0358 8.18374C10.8656 8.18374 9.87963 8.57389 9.22959 9.28889C8.51444 10.004 8.25439 11.0442 8.25439 12.2902V17.7078C8.25439 18.8781 8.51444 19.9832 9.22959 20.7091C9.94475 21.4243 10.92 21.8143 12.0358 21.8143C13.2061 21.8143 14.1921 21.4241 14.8421 20.7091C15.5573 19.994 15.8173 18.9538 15.8173 17.7078V14.7172C15.8173 14.5871 15.6872 14.4572 15.5573 14.4572H12.2309C12.1008 14.4572 11.9709 14.5873 11.9709 14.7172V16.9384C11.9709 17.0685 12.101 17.1985 12.2309 17.1985H13.0869V17.7186C13.0869 18.1737 12.9568 18.5746 12.7619 18.8237C12.5668 19.0838 12.3068 19.1487 11.9818 19.1487C11.6675 19.1487 11.3967 19.0186 11.2017 18.8237C11.0066 18.5637 10.8766 18.1735 10.8766 17.7186V12.3659C10.8766 11.9108 11.0067 11.5099 11.2017 11.2608C11.3967 11.0008 11.6568 10.9358 11.9818 10.9358C12.296 10.9358 12.5668 11.0659 12.7619 11.2608C12.957 11.5208 13.0869 11.911 13.0869 12.3659V12.886C13.0869 13.0161 13.217 13.0811 13.282 13.0811H15.5574C15.6875 13.0811 15.7525 13.0161 15.7525 12.886V12.3659C15.7525 11.1957 15.4924 10.0905 14.7773 9.36462C14.1922 8.57358 13.1411 8.18359 12.036 8.18359L12.0358 8.18374Z" fill="#F63440"/>
<path d="M22.7649 10.8008H25.0404C25.1705 10.8008 25.2354 10.9309 25.2354 10.9959V23.7056C25.2354 23.7705 25.1705 23.9006 25.0404 23.9006H22.7649C22.7 23.9006 22.5699 23.8357 22.5699 23.7056V18.6239H20.2945V23.7056C20.2945 23.7705 20.2295 23.9006 20.0994 23.9006H17.824C17.759 23.9006 17.6289 23.8357 17.6289 23.7056V10.9959C17.6289 10.9309 17.6939 10.8008 17.824 10.8008H20.0994C20.1644 10.8008 20.2945 10.8658 20.2945 10.9959V15.9476H22.5699V10.9959C22.5699 10.9309 22.6348 10.8008 22.7649 10.8008Z" fill="#F63440"/>
</g>
</svg>
